<svg xmlns="http://www.w3.org/2000/svg" viewBox="0 0 40 40" width="100%" height="100%">
  <rect width="40" height="40" rx="12" ry="12" fill="#38a382" />
  <g transform="translate(5, 8) scale(0.875)" stroke="#ffffff" stroke-width="2" stroke-linecap="round" stroke-linejoin="round" fill="none">
    <path d="M11 20A7 7 0 0 1 9.8 6.1C15.5 5 17 4.48 19 2c1 2 2 4.18 2 8 0 5.5-4.78 10-10 10Z" />
    <path d="M2 21c0-3 1.85-5.36 5.08-6C9.5 14.52 12 13 13 12" />
  </g>
  <g transform="translate(17, 16) scale(0.7083)" stroke="#ffffff" stroke-width="2.2" stroke-linecap="round" stroke-linejoin="round" fill="none" opacity="0.85">
    <path d="M5 21v-6" />
    <path d="M12 21V3" />
    <path d="M19 21V9" />
  </g>
</svg>
